<mxfile host="65bd71144e">
    <diagram id="Q-d1Mq_EznYy2ryk-Lx3" name="Page-1">
        <mxGraphModel dx="899" dy="593" grid="1" gridSize="10" guides="1" tooltips="1" connect="1" arrows="1" fold="1" page="1" pageScale="1" pageWidth="850" pageHeight="1100" math="0" shadow="0">
            <root>
                <mxCell id="0"/>
                <mxCell id="1" parent="0"/>
                <mxCell id="2" value="VPC" style="shape=mxgraph.ibm.box;prType=vpc;fontStyle=0;verticalAlign=top;align=left;spacingLeft=32;spacingTop=4;fillColor=none;rounded=0;whiteSpace=wrap;html=1;strokeColor=#4376BB;strokeWidth=2;dashed=0;container=1;spacing=-4;collapsible=0;expand=0;recursiveResize=0;" parent="1" vertex="1">
                    <mxGeometry x="20" y="30" width="650" height="410" as="geometry"/>
                </mxCell>
                <mxCell id="5" value="Zone" style="shape=mxgraph.ibm.box;prType=zone;fontStyle=0;verticalAlign=top;align=left;spacingLeft=32;spacingTop=4;fillColor=#f5f5f5;rounded=0;whiteSpace=wrap;html=1;strokeColor=#666666;strokeWidth=1;dashed=0;container=1;spacing=-4;collapsible=0;expand=0;recursiveResize=0;fontColor=#333333;" parent="2" vertex="1">
                    <mxGeometry x="430" y="39" width="190" height="340" as="geometry"/>
                </mxCell>
                <mxCell id="4" value="Zone" style="shape=mxgraph.ibm.box;prType=zone;fontStyle=0;verticalAlign=top;align=left;spacingLeft=32;spacingTop=4;fillColor=#F0F0F0;rounded=0;whiteSpace=wrap;html=1;strokeColor=#919191;strokeWidth=1;dashed=0;container=1;spacing=-4;collapsible=0;expand=0;recursiveResize=0;" parent="2" vertex="1">
                    <mxGeometry x="230" y="40" width="190" height="340" as="geometry"/>
                </mxCell>
                <mxCell id="3" value="Zone" style="shape=mxgraph.ibm.box;prType=zone;fontStyle=0;verticalAlign=top;align=left;spacingLeft=32;spacingTop=4;fillColor=#F0F0F0;rounded=0;whiteSpace=wrap;html=1;strokeColor=#919191;strokeWidth=1;dashed=0;container=1;spacing=-4;collapsible=0;expand=0;recursiveResize=0;" parent="2" vertex="1">
                    <mxGeometry x="20" y="40" width="190" height="340" as="geometry"/>
                </mxCell>
                <mxCell id="6" value="OpenShift Cluster" style="fontStyle=0;verticalAlign=top;align=center;spacingTop=-2;fillColor=none;rounded=0;whiteSpace=wrap;html=1;strokeColor=#FF0000;strokeWidth=2;dashed=1;container=1;collapsible=0;expand=0;recursiveResize=0;" parent="3" vertex="1">
                    <mxGeometry x="-10" y="30" width="630" height="300" as="geometry"/>
                </mxCell>
                <mxCell id="9" value="JMS" style="edgeStyle=orthogonalEdgeStyle;html=1;entryX=0.5;entryY=0;entryDx=0;entryDy=0;sketch=1;" parent="6" source="7" target="8" edge="1">
                    <mxGeometry relative="1" as="geometry"/>
                </mxCell>
                <mxCell id="7" value="Transaction Simulator&lt;br&gt;Quarkus&lt;br&gt;Reactive Messaging" style="rounded=0;whiteSpace=wrap;html=1;strokeColor=#82b366;sketch=1;fillColor=#d5e8d4;" parent="6" vertex="1">
                    <mxGeometry x="30" y="30" width="140" height="70" as="geometry"/>
                </mxCell>
                <mxCell id="14" style="edgeStyle=orthogonalEdgeStyle;html=1;entryX=0.5;entryY=0;entryDx=0;entryDy=0;sketch=1;" parent="6" source="8" target="10" edge="1">
                    <mxGeometry relative="1" as="geometry"/>
                </mxCell>
                <mxCell id="8" value="MQ" style="rounded=0;whiteSpace=wrap;html=1;strokeColor=#6c8ebf;sketch=1;fillColor=#dae8fc;" parent="6" vertex="1">
                    <mxGeometry x="245" y="110" width="140" height="40" as="geometry"/>
                </mxCell>
                <mxCell id="10" value="Kafka Connect&lt;br&gt;MQ Source Connector" style="rounded=0;whiteSpace=wrap;html=1;strokeColor=#6c8ebf;sketch=1;fillColor=#dae8fc;" parent="6" vertex="1">
                    <mxGeometry x="440" y="150" width="140" height="40" as="geometry"/>
                </mxCell>
                <mxCell id="16" value="Event Streams" style="fontStyle=0;verticalAlign=top;align=center;spacingTop=-2;fillColor=none;rounded=0;whiteSpace=wrap;html=1;strokeColor=#919191;strokeWidth=2;dashed=1;container=1;collapsible=0;expand=0;recursiveResize=0;" vertex="1" parent="6">
                    <mxGeometry x="20" y="220" width="590" height="70" as="geometry"/>
                </mxCell>
                <mxCell id="11" value="Kafka Broker 0" style="rounded=0;whiteSpace=wrap;html=1;strokeColor=#6c8ebf;sketch=1;fillColor=#dae8fc;" parent="16" vertex="1">
                    <mxGeometry x="20" y="20" width="140" height="40" as="geometry"/>
                </mxCell>
                <mxCell id="17" value="Kafka Broker 1" style="rounded=0;whiteSpace=wrap;html=1;strokeColor=#6c8ebf;sketch=1;fillColor=#dae8fc;" vertex="1" parent="16">
                    <mxGeometry x="230" y="20" width="140" height="40" as="geometry"/>
                </mxCell>
                <mxCell id="18" value="Kafka Broker 2" style="rounded=0;whiteSpace=wrap;html=1;strokeColor=#6c8ebf;sketch=1;fillColor=#dae8fc;" vertex="1" parent="16">
                    <mxGeometry x="430" y="20" width="140" height="40" as="geometry"/>
                </mxCell>
                <mxCell id="15" style="edgeStyle=orthogonalEdgeStyle;sketch=1;html=1;entryX=0.5;entryY=0;entryDx=0;entryDy=0;" parent="6" source="10" target="16" edge="1">
                    <mxGeometry relative="1" as="geometry"/>
                </mxCell>
            </root>
        </mxGraphModel>
    </diagram>
</mxfile>